<svg width="680" height="340" viewBox="0 0 680 340" role="img" xmlns="http://www.w3.org/2000/svg">
  <title>Potta logo</title>
  <rect width="680" height="340" fill="#0a0a0a" rx="12"/>
  <defs>
    <radialGradient id="ballshine" cx="38%" cy="32%" r="55%">
      <stop offset="0%" stop-color="#ffffff" stop-opacity="0.9"/>
      <stop offset="40%" stop-color="#cccccc" stop-opacity="0.1"/>
      <stop offset="100%" stop-color="#000000" stop-opacity="0"/>
    </radialGradient>
    <radialGradient id="ballbody" cx="50%" cy="50%" r="50%">
      <stop offset="0%" stop-color="#222222"/>
      <stop offset="100%" stop-color="#000000"/>
    </radialGradient>
  </defs>
  <rect x="178" y="138" width="13" height="78" rx="6.5" fill="#ffffff"/>
  <circle cx="214" cy="162" r="32" fill="url(#ballbody)" stroke="#1a1a1a" stroke-width="1"/>
  <circle cx="214" cy="162" r="11" fill="#ffffff"/>
  <text x="214" y="167" text-anchor="middle" font-family="Georgia, serif" font-size="12" font-weight="700" fill="#000000">8</text>
  <circle cx="214" cy="162" r="32" fill="url(#ballshine)" opacity="0.35"/>
  <rect x="178" y="138" width="13" height="13" rx="0" fill="#ffffff"/>
  <rect x="178" y="138" width="50" height="13" rx="6.5" fill="#ffffff"/>
  <circle cx="278" cy="176" r="20" fill="none" stroke="#ffffff" stroke-width="13"/>
  <rect x="318" y="138" width="13" height="58" rx="6.5" fill="#ffffff"/>
  <rect x="305" y="138" width="38" height="13" rx="6.5" fill="#ffffff"/>
  <rect x="362" y="138" width="13" height="58" rx="6.5" fill="#ffffff"/>
  <rect x="349" y="138" width="38" height="13" rx="6.5" fill="#ffffff"/>
  <path d="M396 196 C396 196 398 165 415 158 C426 153 438 155 443 165 L443 196" fill="none" stroke="#ffffff" stroke-width="13" stroke-linecap="round" stroke-linejoin="round"/>
  <path d="M399 178 L442 178" fill="none" stroke="#ffffff" stroke-width="11" stroke-linecap="round"/>
  <rect x="437" y="163" width="13" height="33" rx="6.5" fill="#ffffff"/>
  <circle cx="470" cy="191" r="7.5" fill="#D4A843"/>
  <text x="340" y="234" text-anchor="middle" font-family="Arial, sans-serif" font-size="11" font-weight="400" fill="#666666" letter-spacing="4">PRO BILLIARDS</text>
  <rect x="240" y="244" width="200" height="2" rx="1" fill="#1a6b5c" opacity="0.6"/>
</svg>
